<svg height="512" viewBox="0 0 24 24" width="512" xmlns="http://www.w3.org/2000/svg">
	<path fill="#FFF" d="m15.195 23c-.421 0-.804-.264-.953-.656l-4.173-10.956c-.043-.094-.069-.225-.069-.366 0-.564.458-1.022 1.021-1.022.146 0 .276.027.396.082l10.926 4.161c.393.149.657.531.657.953 0 .444-.283.834-.706.971l-4.615 1.512-1.512 4.617c-.139.421-.529.704-.972.704zm-4.163-11.996 4.145 10.984 1.63-4.861c.05-.151.169-.27.32-.319l4.873-1.612c0-.013-.009-.017-.011-.018z" />
	<path fill="#FFF" d="m11 21c-5.514 0-10-4.486-10-10s4.486-10 10-10 10 4.486 10 10c0 .142 0 .285-.011.427-.021.275-.266.481-.536.461-.275-.021-.482-.261-.462-.536.009-.117.009-.234.009-.352 0-4.962-4.037-9-9-9s-9 4.038-9 9 4.037 9 9 9c.119 0 .244 0 .363-.008.267-.021.515.186.536.461s-.187.515-.462.536c-.142.011-.295.011-.437.011z" />
</svg>
