<svg width="781" height="406" viewBox="0 0 781 406" fill="none" xmlns="http://www.w3.org/2000/svg">
<path d="M542.134 -5.9718e-05L0 321.247L16.3043 348.762L558.438 27.5149L542.134 -5.9718e-05Z" fill="#1E2023"/>
<path d="M659.965 26.9328L117.831 348.18L134.136 375.695L676.27 54.4477L659.965 26.9328Z" fill="#1E2023"/>
<path d="M764.33 56.3907L222.196 377.638L238.501 405.153L780.634 83.9056L764.33 56.3907Z" fill="#1E2023"/>
<path d="M353.12 376.579C446.863 376.579 522.856 300.586 522.856 206.844C522.856 113.101 446.863 37.1079 353.12 37.1079C259.378 37.1079 183.385 113.101 183.385 206.844C183.385 300.586 259.378 376.579 353.12 376.579Z" fill="#18191C"/>
<path d="M182.122 206.844C182.122 112.555 258.832 35.8455 353.12 35.8455C447.409 35.8455 524.119 112.555 524.119 206.844C524.119 301.132 447.409 377.842 353.12 377.842C258.832 377.842 182.122 301.132 182.122 206.844ZM184.647 206.844C184.647 299.74 260.224 375.317 353.12 375.317C446.017 375.317 521.594 299.74 521.594 206.844C521.594 113.947 446.017 38.3705 353.12 38.3705C260.224 38.3705 184.647 113.947 184.647 206.844H184.647Z" fill="#3F3D56"/>
<path d="M322.863 207.582C322.863 201.597 324.638 195.747 327.962 190.772C331.287 185.796 336.013 181.918 341.541 179.628C347.07 177.337 353.154 176.738 359.023 177.906C364.893 179.073 370.284 181.955 374.515 186.186C378.747 190.418 381.629 195.809 382.796 201.679C383.964 207.548 383.365 213.632 381.074 219.161C378.784 224.689 374.906 229.415 369.93 232.74C364.955 236.064 359.105 237.839 353.12 237.839C345.096 237.839 337.4 234.651 331.725 228.977C326.051 223.302 322.863 215.606 322.863 207.582V207.582ZM353.12 178.8C345.49 178.809 338.174 181.844 332.778 187.24C327.383 192.635 324.348 199.951 324.339 207.582V207.582C324.339 213.274 326.027 218.839 329.19 223.572C332.352 228.305 336.847 231.994 342.106 234.172C347.365 236.35 353.152 236.92 358.735 235.81C364.318 234.699 369.447 231.958 373.472 227.933C377.497 223.908 380.238 218.78 381.349 213.197C382.459 207.614 381.889 201.827 379.711 196.568C377.532 191.308 373.843 186.813 369.11 183.651C364.377 180.488 358.813 178.8 353.12 178.8V178.8Z" fill="#3F3D56"/>
<path d="M295.558 207.582C295.558 196.197 298.934 185.068 305.259 175.602C311.584 166.135 320.574 158.758 331.092 154.401C341.61 150.044 353.184 148.904 364.35 151.125C375.516 153.346 385.773 158.829 393.823 166.879C401.874 174.929 407.356 185.186 409.577 196.352C411.798 207.518 410.658 219.092 406.301 229.61C401.944 240.128 394.567 249.118 385.1 255.443C375.634 261.768 364.505 265.144 353.12 265.144C345.561 265.144 338.076 263.655 331.092 260.763C324.108 257.87 317.763 253.63 312.417 248.285C307.072 242.939 302.832 236.594 299.939 229.61C297.047 222.626 295.558 215.141 295.558 207.582V207.582ZM353.12 151.495C342.027 151.495 331.184 154.784 321.96 160.947C312.737 167.11 305.548 175.87 301.303 186.118C297.058 196.367 295.947 207.644 298.111 218.524C300.276 229.403 305.617 239.397 313.461 247.241C321.305 255.085 331.299 260.426 342.178 262.591C353.058 264.755 364.335 263.644 374.584 259.399C384.832 255.154 393.592 247.965 399.755 238.742C405.918 229.518 409.207 218.675 409.207 207.582C409.19 192.712 403.276 178.456 392.761 167.941C382.246 157.426 367.99 151.512 353.12 151.495Z" fill="#1E2023"/>
<path d="M240.947 207.582C240.947 185.396 247.526 163.708 259.852 145.262C272.177 126.815 289.697 112.437 310.194 103.947C330.691 95.457 353.245 93.2356 375.004 97.5638C396.764 101.892 416.751 112.575 432.439 128.263C448.126 143.951 458.81 163.938 463.138 185.698C467.466 207.457 465.245 230.011 456.755 250.508C448.265 271.005 433.887 288.524 415.44 300.85C396.994 313.176 375.306 319.755 353.12 319.755C323.38 319.721 294.868 307.892 273.839 286.863C252.81 265.834 240.981 237.321 240.947 207.582V207.582ZM353.12 96.8844C331.227 96.8844 309.824 103.377 291.62 115.54C273.416 127.704 259.228 144.992 250.849 165.22C242.471 185.447 240.279 207.704 244.55 229.178C248.821 250.651 259.364 270.375 274.846 285.856C290.327 301.338 310.051 311.881 331.524 316.152C352.998 320.423 375.255 318.231 395.482 309.853C415.71 301.474 432.998 287.286 445.162 269.082C457.325 250.878 463.818 229.476 463.818 207.582C463.784 178.233 452.111 150.096 431.358 129.344C410.606 108.591 382.469 96.9176 353.12 96.8844V96.8844Z" fill="#1E2023"/>
<path d="M353.12 220.865C360.864 220.865 367.142 214.588 367.142 206.844C367.142 199.1 360.864 192.822 353.12 192.822C345.376 192.822 339.099 199.1 339.099 206.844C339.099 214.588 345.376 220.865 353.12 220.865Z" fill="#18E295"/>
<path d="M316.959 261.454C324.703 261.454 330.981 255.177 330.981 247.433C330.981 239.689 324.703 233.411 316.959 233.411C309.215 233.411 302.938 239.689 302.938 247.433C302.938 255.177 309.215 261.454 316.959 261.454Z" fill="#18E295"/>
<path d="M458.035 255.55C465.779 255.55 472.057 249.273 472.057 241.529C472.057 233.785 465.779 227.507 458.035 227.507C450.291 227.507 444.014 233.785 444.014 241.529C444.014 249.273 450.291 255.55 458.035 255.55Z" fill="#18E295"/>
<path d="M353.12 213.485C356.789 213.485 359.762 210.512 359.762 206.844C359.762 203.175 356.789 200.202 353.12 200.202C349.452 200.202 346.479 203.175 346.479 206.844C346.479 210.512 349.452 213.485 353.12 213.485Z" fill="#2F2E41"/>
<path d="M458.035 248.171C461.703 248.171 464.677 245.197 464.677 241.529C464.677 237.861 461.703 234.887 458.035 234.887C454.367 234.887 451.393 237.861 451.393 241.529C451.393 245.197 454.367 248.171 458.035 248.171Z" fill="#2F2E41"/>
<path d="M316.959 254.812C320.627 254.812 323.601 251.839 323.601 248.171C323.601 244.502 320.627 241.529 316.959 241.529C313.291 241.529 310.317 244.502 310.317 248.171C310.317 251.839 313.291 254.812 316.959 254.812Z" fill="#2F2E41"/>
<path d="M43.1681 138.949C46.8362 138.949 49.8099 135.976 49.8099 132.307C49.8099 128.639 46.8362 125.666 43.1681 125.666C39.4999 125.666 36.5262 128.639 36.5262 132.307C36.5262 135.976 39.4999 138.949 43.1681 138.949Z" fill="#18E295"/>
<path d="M352.751 132.677H61.248V131.201H354.228V207.212H352.751V132.677Z" fill="#2F2E41"/>
<path d="M23.9804 132.307C23.9804 128.513 25.1058 124.803 27.2141 121.647C29.3225 118.492 32.3191 116.033 35.8252 114.581C39.3313 113.128 43.1892 112.748 46.9113 113.489C50.6333 114.229 54.0522 116.056 56.7356 118.74C59.419 121.423 61.2465 124.842 61.9868 128.564C62.7272 132.286 62.3472 136.144 60.895 139.65C59.4427 143.156 56.9834 146.153 53.828 148.261C50.6726 150.37 46.9629 151.495 43.168 151.495C40.6483 151.495 38.1532 150.999 35.8252 150.034C33.4973 149.07 31.3821 147.657 29.6003 145.875C27.8186 144.093 26.4053 141.978 25.441 139.65C24.4767 137.322 23.9804 134.827 23.9804 132.307V132.307ZM43.168 114.596C39.665 114.596 36.2406 115.635 33.328 117.581C30.4153 119.527 28.1452 122.293 26.8046 125.53C25.4641 128.766 25.1133 132.327 25.7967 135.763C26.4801 139.199 28.167 142.354 30.644 144.831C33.121 147.308 36.2769 148.995 39.7126 149.679C43.1483 150.362 46.7095 150.011 49.9459 148.671C53.1822 147.33 55.9484 145.06 57.8946 142.148C59.8408 139.235 60.8795 135.811 60.8795 132.307C60.8741 127.612 59.0064 123.11 55.686 119.789C52.3656 116.469 47.8637 114.601 43.168 114.596V114.596Z" fill="#2F2E41"/>
<path d="M87.447 330.087C91.1152 330.087 94.0888 327.113 94.0888 323.445C94.0888 319.777 91.1152 316.803 87.447 316.803C83.7788 316.803 80.8051 319.777 80.8051 323.445C80.8051 327.113 83.7788 330.087 87.447 330.087Z" fill="#18E295"/>
<path d="M68.2594 323.445C68.2594 319.65 69.3848 315.94 71.4931 312.785C73.6015 309.629 76.5981 307.17 80.1042 305.718C83.6102 304.266 87.4682 303.886 91.1902 304.626C94.9123 305.366 98.3311 307.194 101.015 309.877C103.698 312.561 105.525 315.979 106.266 319.701C107.006 323.423 106.626 327.281 105.174 330.787C103.722 334.294 101.262 337.29 98.107 339.399C94.9516 341.507 91.2419 342.632 87.4469 342.632C82.3581 342.632 77.4777 340.611 73.8793 337.012C70.281 333.414 68.2594 328.534 68.2594 323.445V323.445ZM87.4469 305.733C83.9439 305.733 80.5196 306.772 77.6069 308.718C74.6943 310.664 72.4241 313.43 71.0836 316.667C69.743 319.903 69.3923 323.464 70.0757 326.9C70.7591 330.336 72.4459 333.492 74.9229 335.969C77.3999 338.446 80.5558 340.133 83.9915 340.816C87.4273 341.499 90.9885 341.149 94.2248 339.808C97.4612 338.468 100.227 336.197 102.174 333.285C104.12 330.372 105.158 326.948 105.158 323.445C105.153 318.749 103.285 314.247 99.9649 310.927C96.6445 307.606 92.1427 305.739 87.4469 305.733Z" fill="#2F2E41"/>
<path d="M663.932 169.945C667.6 169.945 670.574 166.971 670.574 163.303C670.574 159.635 667.6 156.661 663.932 156.661C660.264 156.661 657.29 159.635 657.29 163.303C657.29 166.971 660.264 169.945 663.932 169.945Z" fill="#18E295"/>
<path d="M644.745 163.303C644.745 159.508 645.87 155.798 647.978 152.643C650.087 149.487 653.083 147.028 656.589 145.576C660.095 144.124 663.953 143.744 667.675 144.484C671.397 145.224 674.816 147.052 677.5 149.735C680.183 152.419 682.011 155.837 682.751 159.559C683.491 163.281 683.111 167.139 681.659 170.645C680.207 174.152 677.748 177.148 674.592 179.257C671.437 181.365 667.727 182.49 663.932 182.49C661.412 182.49 658.917 181.994 656.589 181.03C654.261 180.065 652.146 178.652 650.365 176.87C648.583 175.089 647.169 172.973 646.205 170.645C645.241 168.318 644.745 165.822 644.745 163.303V163.303ZM663.932 145.591C659.236 145.597 654.735 147.464 651.414 150.785C648.094 154.105 646.226 158.607 646.221 163.303V163.303C646.221 166.806 647.259 170.23 649.206 173.143C651.152 176.055 653.918 178.326 657.154 179.666C660.391 181.007 663.952 181.357 667.388 180.674C670.823 179.991 673.979 178.304 676.456 175.827C678.933 173.35 680.62 170.194 681.303 166.758C681.987 163.322 681.636 159.761 680.296 156.525C678.955 153.288 676.685 150.522 673.772 148.576C670.86 146.63 667.435 145.591 663.932 145.591V145.591Z" fill="#2F2E41"/>
<path d="M457.297 165.528L645.471 162.565L645.494 164.04L458.773 166.981V241.529H457.297V165.528Z" fill="#2F2E41"/>
<path d="M105.897 322.707H316.221V248.171H317.697V324.182H105.897V322.707Z" fill="#2F2E41"/>
<path d="M83.7571 166.993H2.57907V172.159H83.7571V166.993Z" fill="#1E2023"/>
<path d="M83.7571 181.752H2.57907V186.918H83.7571V181.752Z" fill="#1E2023"/>
<path d="M83.7571 196.512H2.57907V201.678H83.7571V196.512Z" fill="#1E2023"/>
<path d="M128.036 358.13H46.8579V363.296H128.036V358.13Z" fill="#1E2023"/>
<path d="M128.036 372.889H46.8579V378.055H128.036V372.889Z" fill="#1E2023"/>
<path d="M128.036 387.649H46.8579V392.815H128.036V387.649Z" fill="#1E2023"/>
<path d="M704.521 198.726H623.343V203.892H704.521V198.726Z" fill="#1E2023"/>
<path d="M704.521 213.485H623.343V218.651H704.521V213.485Z" fill="#1E2023"/>
<path d="M704.521 228.245H623.343V233.411H704.521V228.245Z" fill="#1E2023"/>
</svg>
